<?xml version="1.0" standalone="no"?>
<!DOCTYPE svg PUBLIC "-//W3C//DTD SVG 20010904//EN"
 "http://www.w3.org/TR/2001/REC-SVG-20010904/DTD/svg10.dtd">
<svg version="1.0" xmlns="http://www.w3.org/2000/svg"
 width="16.000000pt" height="16.000000pt" viewBox="0 0 16.000000 16.000000"
 preserveAspectRatio="xMidYMid meet">
<metadata>
Created by potrace 1.11, written by Peter Selinger 2001-2013
</metadata>
<g transform="translate(0.000000,16.000000) scale(0.005926,-0.005926)"
fill="#000000" stroke="none">
<path d="M0 1350 l0 -1350 1350 0 1350 0 0 1350 0 1350 -1350 0 -1350 0 0
-1350z m1332 251 c185 -48 370 -134 483 -227 l55 -44 83 0 c247 0 500 -78 632
-195 l50 -44 -95 49 c-192 98 -302 117 -753 130 -841 25 -1278 48 -1544 82
-95 12 -171 24 -169 26 3 2 96 21 208 43 147 28 256 57 398 103 107 36 227 72
265 80 105 22 295 20 387 -3z m-1182 -257 c17 -3 30 -10 30 -16 0 -13 -71 -83
-100 -98 -19 -10 -20 -7 -20 60 l0 72 30 -6 c17 -3 44 -9 60 -12z"/>
<path d="M1020 1559 c-36 -4 -99 -16 -140 -25 -83 -18 -350 -102 -363 -114 -5
-4 6 -10 25 -14 45 -8 544 -43 798 -56 113 -5 246 -12 295 -15 l90 -5 -35 30
c-194 166 -415 232 -670 199z"/>
</g>
</svg>
